<svg version="1.1" xmlns="http://www.w3.org/2000/svg" viewBox="0 0 934 669.0999999999995" width="934" height="669.0999999999995" filter="invert(93%) hue-rotate(180deg)">
  <!-- svg-source:excalidraw -->
  
  <defs>
    <style class="style-fonts">
      @font-face {
        font-family: "Virgil";
        src: url("https://excalidraw.com/Virgil.woff2");
      }
      @font-face {
        font-family: "Cascadia";
        src: url("https://excalidraw.com/Cascadia.woff2");
      }
      @font-face {
        font-family: "Assistant";
        src: url("https://excalidraw.com/Assistant-Regular.woff2");
      }
    </style>
    
  </defs>
  <g stroke-linecap="round" transform="translate(678 10) rotate(0 114.5 89)"><path d="M32 0 C76.68 -0.67, 119.72 1.12, 197 0 C217.92 0.87, 229.72 9.14, 229 32 C232.52 62.69, 233.31 89.11, 229 146 C228.83 170.34, 216.19 175.15, 197 178 C143.87 181.35, 96.59 178.39, 32 178 C11.95 174.57, 0.19 165.88, 0 146 C-1.72 115.12, 0.96 87.11, 0 32 C-0.8 12.71, 7.25 1.9, 32 0" stroke="none" stroke-width="0" fill="#a5d8ff"></path><path d="M32 0 C67.8 -2.17, 106.18 -1.53, 197 0 M32 0 C74.37 -1.22, 116.44 -0.27, 197 0 M197 0 C220.28 -0.54, 231 11.78, 229 32 M197 0 C218.49 0.55, 231.24 11.24, 229 32 M229 32 C228.66 70.75, 230.01 113.6, 229 146 M229 32 C229.84 56.79, 229.98 79.5, 229 146 M229 146 C227.83 167.56, 218.7 179.01, 197 178 M229 146 C231.29 168.87, 216.05 178.79, 197 178 M197 178 C145.26 175.63, 93.12 175.84, 32 178 M197 178 C130.84 179.84, 66.97 178.98, 32 178 M32 178 C12.22 177.14, 0.85 169.05, 0 146 M32 178 C11.22 179.38, -0.06 168.57, 0 146 M0 146 C-2.06 103.2, 0.01 57.88, 0 32 M0 146 C0.6 118.29, 0.81 90.89, 0 32 M0 32 C-1.48 11.11, 10.59 -1.33, 32 0 M0 32 C1.89 11.99, 11.68 -1.22, 32 0" stroke="#1971c2" stroke-width="1" fill="none"></path></g><g transform="translate(716.328125 63) rotate(0 76.171875 36)"><text x="76.171875" y="0" font-family="Cascadia, Segoe UI Emoji" font-size="20px" fill="#1971c2" text-anchor="middle" style="white-space: pre;" direction="ltr" dominant-baseline="text-before-edge">Serveur Web</text><text x="76.171875" y="24" font-family="Cascadia, Segoe UI Emoji" font-size="20px" fill="#1971c2" text-anchor="middle" style="white-space: pre;" direction="ltr" dominant-baseline="text-before-edge"></text><text x="76.171875" y="48" font-family="Cascadia, Segoe UI Emoji" font-size="20px" fill="#1971c2" text-anchor="middle" style="white-space: pre;" direction="ltr" dominant-baseline="text-before-edge">(Live Server)</text></g><g stroke-linecap="round" transform="translate(665 431) rotate(0 129.5 78)"><path d="M32 0 C88.5 -0.59, 146.54 -2.99, 227 0 C246.79 1.44, 256.37 13.37, 259 32 C260.44 66.14, 258.46 91.4, 259 124 C259.29 147.38, 248.47 153.69, 227 156 C152.28 152.84, 75.18 154.81, 32 156 C9.42 156.18, 2.54 143.72, 0 124 C-1.29 100.07, -3.91 73.95, 0 32 C3.51 13.24, 12.32 -2.34, 32 0" stroke="none" stroke-width="0" fill="#ffffff"></path><path d="M32 0 C70.33 2.88, 111.1 0.61, 227 0 M32 0 C80.43 -1.01, 127.91 -0.18, 227 0 M227 0 C248.47 0.48, 260.95 11.16, 259 32 M227 0 C249.65 -0.33, 259.03 10.47, 259 32 M259 32 C257.79 51.99, 258.7 68.86, 259 124 M259 32 C258.51 65.06, 259.28 98.4, 259 124 M259 124 C261 146.67, 246.35 156.68, 227 156 M259 124 C259.38 146.08, 247.13 156.56, 227 156 M227 156 C185.08 153.64, 141.04 153.3, 32 156 M227 156 C161.4 154.67, 94.67 155.96, 32 156 M32 156 C11.14 157.2, -0.05 146.41, 0 124 M32 156 C12.8 157.74, 0.49 143.95, 0 124 M0 124 C-1.61 86.17, -2.11 50.5, 0 32 M0 124 C-0.9 100.28, -0.2 75.46, 0 32 M0 32 C1.64 11.82, 11.54 -1.06, 32 0 M0 32 C-0.64 8.64, 10.96 -0.14, 32 0" stroke="#1e1e1e" stroke-width="1" fill="none"></path></g><g transform="translate(694.890625 497) rotate(0 99.609375 12)"><text x="99.609375" y="0" font-family="Cascadia, Segoe UI Emoji" font-size="20px" fill="#1e1e1e" text-anchor="middle" style="white-space: pre;" direction="ltr" dominant-baseline="text-before-edge">Navigateur Client</text></g><g stroke-linecap="round"><g transform="translate(764.1386103794175 427) rotate(0 0.22647864838017995 -115.5)"><path d="M0 0 C-1.57 -89.07, 0.21 -173.11, 0.45 -231 M0 0 C-1.78 -62.86, -0.88 -125.91, 0.45 -231" stroke="#1e1e1e" stroke-width="1" fill="none"></path></g><g transform="translate(764.1386103794175 427) rotate(0 0.22647864838017995 -115.5)"><path d="M0.4 -229.92 L8.48 -215.81 L-5.62 -218.68 L2.43 -230.13" stroke="none" stroke-width="0" fill="#1e1e1e" fill-rule="evenodd"></path><path d="M0.45 -231 C1.99 -227.3, 5.75 -219.17, 6.63 -217.33 M0.45 -231 C2.33 -227.12, 4.69 -223.38, 6.63 -217.33 M6.63 -217.33 C1.99 -218.64, -1.69 -217.35, -6.05 -217.48 M6.63 -217.33 C3.91 -217.05, 1.31 -218.03, -6.05 -217.48 M-6.05 -217.48 C-3.74 -219.26, -1.92 -225.52, 0.45 -231 M-6.05 -217.48 C-4.29 -221.84, -2.29 -226.33, 0.45 -231 M0.45 -231 C0.45 -231, 0.45 -231, 0.45 -231 M0.45 -231 C0.45 -231, 0.45 -231, 0.45 -231" stroke="#1e1e1e" stroke-width="1" fill="none"></path></g></g><mask></mask><g stroke-linecap="round"><g transform="translate(822.713145581456 202) rotate(0 1.4352383870414087 111)"><path d="M1.2 0.67 C1.5 37.77, 2.48 185.35, 2.95 222.29 M0.37 -0.03 C0.41 36.72, 1.46 183.02, 2.05 220.32" stroke="#1e1e1e" stroke-width="1" fill="none"></path></g><g transform="translate(822.713145581456 202) rotate(0 1.4352383870414087 111)"><path d="M4.03 221.19 L-2.99 205.58 L7.13 204.94 L1.98 219.52" stroke="none" stroke-width="0" fill="#1e1e1e" fill-rule="evenodd"></path><path d="M2.05 220.32 C0.34 215.11, -2.71 211.1, -4.44 206.79 M2.05 220.32 C-0.13 215.85, -2.99 211.96, -4.44 206.79 M-4.44 206.79 C-1.08 206.61, 4.08 206.75, 8.24 206.66 M-4.44 206.79 C-1.68 207.07, 1.48 207.15, 8.24 206.66 M8.24 206.66 C7.53 208.62, 6.16 211.03, 2.05 220.32 M8.24 206.66 C5.71 211.86, 3.54 215.99, 2.05 220.32 M2.05 220.32 C2.05 220.32, 2.05 220.32, 2.05 220.32 M2.05 220.32 C2.05 220.32, 2.05 220.32, 2.05 220.32" stroke="#1e1e1e" stroke-width="1" fill="none"></path></g></g><mask></mask><g stroke-linecap="round" transform="translate(729.5 290.5) rotate(0 67.00000000000045 19)"><path d="M0.98 1.77 L135.05 -0.55 L133.7 38 L-1.49 38.96" stroke="none" stroke-width="0" fill="#ffffff"></path><path d="M0 0 C38.06 -1.64, 78.41 -2.42, 134 0 M0 0 C44.97 1.53, 88.38 1.07, 134 0 M134 0 C135.17 13.17, 132.62 25.74, 134 38 M134 0 C135.02 11.25, 135.06 21.81, 134 38 M134 38 C108.4 37.89, 79.4 38.09, 0 38 M134 38 C88.06 37.81, 42.71 39.44, 0 38 M0 38 C-1.63 30.45, 0.12 22.2, 0 0 M0 38 C-0.5 25.25, 0.79 9.86, 0 0" stroke="#1e1e1e" stroke-width="1" fill="none"></path></g><g transform="translate(737.90625 297.5) rotate(0 58.59375 12)"><text x="58.59375" y="0" font-family="Cascadia, Segoe UI Emoji" font-size="20px" fill="#1e1e1e" text-anchor="middle" style="white-space: pre;" direction="ltr" dominant-baseline="text-before-edge">styles.css</text></g><g stroke-linecap="round" transform="translate(23 10.5) rotate(0 114.5 89)"><path d="M32 0 C98.36 0.73, 161.24 -1.34, 197 0 C221.43 -3.2, 228.73 10.69, 229 32 C228.15 73.61, 230.96 107.87, 229 146 C231.36 166.48, 217.33 177.2, 197 178 C137.98 183.68, 80.34 183.94, 32 178 C8.89 176.93, 2.49 165.99, 0 146 C-1.08 113.6, -0.42 74.94, 0 32 C1.38 9.52, 11.44 3.58, 32 0" stroke="none" stroke-width="0" fill="#a5d8ff"></path><path d="M32 0 C95.77 2.62, 159.44 2.01, 197 0 M32 0 C94.36 -0.4, 155.73 0.89, 197 0 M197 0 C218.32 0.6, 230.84 9.41, 229 32 M197 0 C217.21 -1.33, 231.09 9.49, 229 32 M229 32 C230.53 71.69, 230.91 108.93, 229 146 M229 32 C229.27 65.5, 230.6 101.36, 229 146 M229 146 C227.97 166.66, 219.3 178.91, 197 178 M229 146 C229.67 167.28, 216.19 177.13, 197 178 M197 178 C140.9 177.17, 89.91 179.04, 32 178 M197 178 C134.3 178.78, 71.07 179.5, 32 178 M32 178 C10.38 177.88, 0.01 169.01, 0 146 M32 178 C10.92 176.47, -2.05 166.02, 0 146 M0 146 C0.1 105.77, -0.55 64.98, 0 32 M0 146 C0.41 119.19, 0.25 90.85, 0 32 M0 32 C0.28 10.83, 12.38 -0.98, 32 0 M0 32 C-0.16 9, 12.58 0.54, 32 0" stroke="#1971c2" stroke-width="1" fill="none"></path></g><g transform="translate(61.328125 63.5) rotate(0 76.171875 36)"><text x="76.171875" y="0" font-family="Cascadia, Segoe UI Emoji" font-size="20px" fill="#1971c2" text-anchor="middle" style="white-space: pre;" direction="ltr" dominant-baseline="text-before-edge">Serveur Web</text><text x="76.171875" y="24" font-family="Cascadia, Segoe UI Emoji" font-size="20px" fill="#1971c2" text-anchor="middle" style="white-space: pre;" direction="ltr" dominant-baseline="text-before-edge"></text><text x="76.171875" y="48" font-family="Cascadia, Segoe UI Emoji" font-size="20px" fill="#1971c2" text-anchor="middle" style="white-space: pre;" direction="ltr" dominant-baseline="text-before-edge">(Live Server)</text></g><g stroke-linecap="round" transform="translate(10 431.5) rotate(0 129.5 76.5)"><path d="M32 0 C110.02 -4.14, 181.57 -0.92, 227 0 C249.86 -0.35, 261.13 10.02, 259 32 C262.32 64.24, 258.95 97.39, 259 121 C261.14 143.95, 251.58 153.29, 227 153 C150.44 155.12, 79.94 154.84, 32 153 C11.14 155.34, 1.47 142.59, 0 121 C0.97 85.03, 0.36 54.95, 0 32 C-0.64 7.57, 8.35 -2.61, 32 0" stroke="none" stroke-width="0" fill="#ffffff"></path><path d="M32 0 C111.37 -1.02, 187.81 -0.43, 227 0 M32 0 C83.98 -1.57, 136.88 -2.5, 227 0 M227 0 C247.35 -1.16, 260.82 9.64, 259 32 M227 0 C249.08 1.55, 260.81 11.54, 259 32 M259 32 C259.53 68.2, 260.53 100.01, 259 121 M259 32 C259.12 51.26, 260.11 71.65, 259 121 M259 121 C259.58 142.29, 246.47 152.24, 227 153 M259 121 C259.68 141.4, 249.56 151.04, 227 153 M227 153 C186.77 152.35, 145.22 153.23, 32 153 M227 153 C183.42 152.84, 140.13 153.74, 32 153 M32 153 C10.89 151.67, -1.78 141.19, 0 121 M32 153 C11.83 154.56, 0.28 143.33, 0 121 M0 121 C-1.24 95.8, 1.21 71.19, 0 32 M0 121 C-0.21 86.67, 0.5 51.68, 0 32 M0 32 C-0.14 9.22, 12.33 0.47, 32 0 M0 32 C1.91 9.59, 12.45 2.04, 32 0" stroke="#1e1e1e" stroke-width="1" fill="none"></path></g><g transform="translate(39.890625 496) rotate(0 99.609375 12)"><text x="99.609375" y="0" font-family="Cascadia, Segoe UI Emoji" font-size="20px" fill="#1e1e1e" text-anchor="middle" style="white-space: pre;" direction="ltr" dominant-baseline="text-before-edge">Navigateur Client</text></g><g stroke-linecap="round"><g transform="translate(109.136756040818 427.5) rotate(0 0.22709143384099661 -115.5)"><path d="M0 0 C-0.5 -73.16, 1.84 -146.06, 0.45 -231 M0 0 C-2.07 -76.71, -0.73 -152.87, 0.45 -231" stroke="#1e1e1e" stroke-width="1" fill="none"></path></g><g transform="translate(109.136756040818 427.5) rotate(0 0.22709143384099661 -115.5)"><path d="M-1.33 -232.14 L7.6 -215.96 L-5.83 -216.63 L0.18 -230.78" stroke="none" stroke-width="0" fill="#1e1e1e" fill-rule="evenodd"></path><path d="M0.45 -231 C1.9 -226.82, 5.78 -222.38, 6.6 -217.32 M0.45 -231 C2.24 -226.88, 5.32 -222.32, 6.6 -217.32 M6.6 -217.32 C2.86 -216.15, -1.11 -216.63, -6.08 -217.5 M6.6 -217.32 C2.38 -217.81, -0.59 -216.88, -6.08 -217.5 M-6.08 -217.5 C-3.73 -220.45, -2.82 -225.64, 0.45 -231 M-6.08 -217.5 C-4.01 -221.65, -3.34 -223.92, 0.45 -231 M0.45 -231 C0.45 -231, 0.45 -231, 0.45 -231 M0.45 -231 C0.45 -231, 0.45 -231, 0.45 -231" stroke="#1e1e1e" stroke-width="1" fill="none"></path></g></g><mask></mask><g stroke-linecap="round"><g transform="translate(167.7158681675919 202.5) rotate(0 1.4398427285650541 111)"><path d="M-0.09 1.15 C0.3 38.28, 2.2 185.68, 2.87 222.36 M-1.6 0.71 C-1.42 37.5, 1.02 183.52, 1.92 220.43" stroke="#1e1e1e" stroke-width="1" fill="none"></path></g><g transform="translate(167.7158681675919 202.5) rotate(0 1.4398427285650541 111)"><path d="M2.93 221.78 L-4.44 207.83 L7.72 206.93 L0.8 219.28" stroke="none" stroke-width="0" fill="#1e1e1e" fill-rule="evenodd"></path><path d="M1.92 220.43 C1.12 215.76, -2.15 212.49, -4.68 206.96 M1.92 220.43 C1.1 216.81, -0.9 214.5, -4.68 206.96 M-4.68 206.96 C0.84 207.46, 4.92 207.65, 7.99 206.71 M-4.68 206.96 C0.22 207.45, 3.89 206.67, 7.99 206.71 M7.99 206.71 C5.91 210.1, 3.26 216.73, 1.92 220.43 M7.99 206.71 C5.85 210.85, 4.98 214.37, 1.92 220.43 M1.92 220.43 C1.92 220.43, 1.92 220.43, 1.92 220.43 M1.92 220.43 C1.92 220.43, 1.92 220.43, 1.92 220.43" stroke="#1e1e1e" stroke-width="1" fill="none"></path></g></g><mask></mask><g stroke-linecap="round" transform="translate(74.5 291) rotate(0 67.00000000000045 19)"><path d="M0.25 0.87 L133.72 0.22 L132.87 36.86 L0.27 39.31" stroke="none" stroke-width="0" fill="#ffffff"></path><path d="M0 0 C39.77 1.84, 77.09 -0.97, 134 0 M0 0 C32.77 1.36, 65.67 1.07, 134 0 M134 0 C134.24 16.36, 135.24 28.32, 134 38 M134 0 C133.76 8.03, 134.75 17.19, 134 38 M134 38 C89.16 37.34, 45.02 37.81, 0 38 M134 38 C105.3 39.94, 76.03 40.07, 0 38 M0 38 C0.19 26.17, 0.18 14.92, 0 0 M0 38 C-0.93 22.85, 0.46 9.51, 0 0" stroke="#1e1e1e" stroke-width="1" fill="none"></path></g><g transform="translate(82.90625 298) rotate(0 58.59375 12)"><text x="58.59375" y="0" font-family="Cascadia, Segoe UI Emoji" font-size="20px" fill="#1e1e1e" text-anchor="middle" style="white-space: pre;" direction="ltr" dominant-baseline="text-before-edge">index.html</text></g><g stroke-linecap="round" transform="translate(358.5 485.5) rotate(0 108.50000000000045 24.5)"><path d="M12.25 0 C56.9 4.9, 104.35 4.92, 204.75 0 C209.95 -1.05, 218.08 6.32, 217 12.25 C218.86 14.44, 215.24 24.87, 217 36.75 C213.9 45.89, 211.91 50.69, 204.75 49 C142.07 47.26, 87.96 47.1, 12.25 49 C2.93 46.28, 2.48 44.41, 0 36.75 C-0.13 30.61, -1.63 24.28, 0 12.25 C2.63 5.58, 2 1.98, 12.25 0" stroke="none" stroke-width="0" fill="#ffffff"></path><path d="M12.25 0 C69.86 0.83, 130.78 -0.31, 204.75 0 M204.75 0 C212.3 1.89, 217.58 5.55, 217 12.25 M217 12.25 C216.88 16.31, 215.17 21.72, 217 36.75 M217 36.75 C215.34 46.02, 211.56 48.03, 204.75 49 M204.75 49 C145.18 49.57, 88.58 51.42, 12.25 49 M12.25 49 C4.9 50.67, -1.48 45.72, 0 36.75 M0 36.75 C-1.74 30.09, -2.01 26.52, 0 12.25 M0 12.25 C-0.68 3.35, 3.23 -0.39, 12.25 0" stroke="#868e96" stroke-width="1.5" fill="none" stroke-dasharray="8 9"></path></g><g transform="translate(363.875 490.8000000000002) rotate(0 103.125 19.200000000000045)"><text x="103.125" y="0" font-family="Cascadia, Segoe UI Emoji" font-size="16px" fill="#1971c2" text-anchor="middle" style="white-space: pre;" direction="ltr" dominant-baseline="text-before-edge">&lt;link rel="stylesheet"</text><text x="103.125" y="19.2" font-family="Cascadia, Segoe UI Emoji" font-size="16px" fill="#1971c2" text-anchor="middle" style="white-space: pre;" direction="ltr" dominant-baseline="text-before-edge">href="styles.css"&gt;</text></g><g stroke-linecap="round"><g transform="translate(275.5 511.5) rotate(0 41 0)"><path d="M0.9 -1.08 C14.44 -1.14, 67.98 -0.1, 81.52 -0.05 M-0.08 0.96 C13.23 1.07, 66.74 1.6, 80.33 1.47" stroke="#1e1e1e" stroke-width="1" fill="none"></path></g><g transform="translate(275.5 511.5) rotate(0 41 0)"><path d="M79.07 -0.49 L64.85 6 L68.09 -5.74 L80.27 1.38" stroke="none" stroke-width="0" fill="#1e1e1e" fill-rule="evenodd"></path><path d="M80.33 1.47 C74.54 3.04, 71.39 5.89, 66.72 7.79 M80.33 1.47 C76.55 3.31, 73.55 5.08, 66.72 7.79 M66.72 7.79 C66.29 2.32, 66.12 -1.89, 66.74 -4.89 M66.72 7.79 C67.31 3.95, 67.04 -0.11, 66.74 -4.89 M66.74 -4.89 C70.46 -2.87, 72.52 -2.95, 80.33 1.47 M66.74 -4.89 C71.07 -2.63, 74.8 -1.41, 80.33 1.47 M80.33 1.47 C80.33 1.47, 80.33 1.47, 80.33 1.47 M80.33 1.47 C80.33 1.47, 80.33 1.47, 80.33 1.47" stroke="#1e1e1e" stroke-width="1" fill="none"></path></g></g><mask></mask><g stroke-linecap="round"><g transform="translate(585.5 509.448303488336) rotate(0 38.5 0.2978883086541373)"><path d="M0.66 0.37 C13.39 0.59, 64.19 0.83, 77.04 1.06 M-0.45 -0.48 C12.06 -0.6, 63.14 -0.9, 76.11 -0.81" stroke="#1e1e1e" stroke-width="1" fill="none"></path></g><g transform="translate(585.5 509.448303488336) rotate(0 38.5 0.2978883086541373)"><path d="M77.65 0.32 L63.07 5.77 L62.83 -8.65 L77.08 -0.9" stroke="none" stroke-width="0" fill="#1e1e1e" fill-rule="evenodd"></path><path d="M76.11 -0.81 C71.68 1.59, 66.92 4.75, 62.52 5.53 M76.11 -0.81 C70.56 1.57, 64.75 3.49, 62.52 5.53 M62.52 5.53 C62.09 2.87, 62.57 0.98, 62.51 -7.15 M62.52 5.53 C62.25 1.64, 62.5 -2.76, 62.51 -7.15 M62.51 -7.15 C66.2 -5.37, 69.04 -3.28, 76.11 -0.81 M62.51 -7.15 C66.78 -5.58, 72.12 -2.68, 76.11 -0.81 M76.11 -0.81 C76.11 -0.81, 76.11 -0.81, 76.11 -0.81 M76.11 -0.81 C76.11 -0.81, 76.11 -0.81, 76.11 -0.81" stroke="#1e1e1e" stroke-width="1" fill="none"></path></g></g><mask></mask><g transform="translate(105.5 613.5) rotate(0 31.640625 21.59999999999991)"><text x="0" y="0" font-family="Cascadia, Segoe UI Emoji" font-size="36px" fill="#ced4da" text-anchor="start" style="white-space: pre;" direction="ltr" dominant-baseline="text-before-edge">(1)</text></g><g transform="translate(762.859375 615.8999999999996) rotate(0 31.640625 21.59999999999991)"><text x="0" y="0" font-family="Cascadia, Segoe UI Emoji" font-size="36px" fill="#ced4da" text-anchor="start" style="white-space: pre;" direction="ltr" dominant-baseline="text-before-edge">(3)</text></g><g transform="translate(429.859375 614.8999999999996) rotate(0 31.640625 21.59999999999991)"><text x="0" y="0" font-family="Cascadia, Segoe UI Emoji" font-size="36px" fill="#ced4da" text-anchor="start" style="white-space: pre;" direction="ltr" dominant-baseline="text-before-edge">(2)</text></g></svg>